<svg width="184" height="184" viewBox="0 0 184 184" fill="none" xmlns="http://www.w3.org/2000/svg">
<path d="M147 33H30V150H147V33Z" fill="#FF8C00"/>
<path d="M0 92V184H92H184V92V0H92H0V92ZM94.5 50.2C96.7 55.8 101.7 63.3 112.4 77C117.3 83.3 123.4 92.5 125.9 97.4C129.7 105.2 130.4 107.4 130.8 114.1C131.2 120.8 130.9 122.5 128.7 127.4C126 133.1 121.6 138.1 116.3 141.2L113.3 142.9L113.8 133.2C114.2 124.7 114 122.9 112.1 118.8C109.7 113.7 106.7 110.5 105.2 111.4C104.7 111.7 103.9 113.4 103.6 115.2C102.4 121 98.7 127.5 96.3 127.8C93.9 128.2 89 123.8 89 121.3C89 120.5 90.6 116.2 92.6 111.9C96.3 103.6 98 97 96.3 97C94.6 97 87.8 102.4 80.5 109.6C73.5 116.4 69.8 122.4 68.7 128.7C68.1 131.9 69.2 140.8 70.6 144.4C71.3 146.2 71.1 146.2 67.4 144C50.9 134 47.6 115.2 58.6 93.5C65.5 80.1 67.2 78 68.5 81.9C69.4 84.9 73.7 89 76 89C78.7 89 78.7 84.9 76 73.8C74.4 67.1 74.2 64.8 75.1 61.5C76.6 56 81.4 47.6 86.9 41L91.5 35.6L92.1 40.8C92.5 43.7 93.5 47.9 94.5 50.2Z" fill="#262627"/>
</svg>
