<svg width="64" height="64" viewBox="0 0 64 64" fill="none" xmlns="http://www.w3.org/2000/svg">
<path fill-rule="evenodd" clip-rule="evenodd" d="M31.2929 18.2929C31.6834 17.9024 32.3166 17.9024 32.7071 18.2929L45.7071 31.2929C46.0976 31.6834 46.0976 32.3166 45.7071 32.7071C45.3166 33.0976 44.6834 33.0976 44.2929 32.7071L32 20.4142L19.7071 32.7071C19.3166 33.0976 18.6834 33.0976 18.2929 32.7071C17.9024 32.3166 17.9024 31.6834 18.2929 31.2929L31.2929 18.2929Z" fill="black"/>
<path fill-rule="evenodd" clip-rule="evenodd" d="M32 18C32.5523 18 33 18.4477 33 19V45C33 45.5523 32.5523 46 32 46C31.4477 46 31 45.5523 31 45V19C31 18.4477 31.4477 18 32 18Z" fill="black"/>
</svg>
