<svg height='300px' width='300px'  fill="#000000" xmlns="http://www.w3.org/2000/svg" xmlns:xlink="http://www.w3.org/1999/xlink" version="1.1" x="0px" y="0px" viewBox="0 0 100 100" enable-background="new 0 0 100 100" xml:space="preserve"><g><path fill="#000000" d="M50,88c-20.953,0-38-17.047-38-38s17.047-38,38-38s38,17.047,38,38S70.953,88,50,88z M50,16   c-18.748,0-34,15.252-34,34c0,18.748,15.252,34,34,34c18.748,0,34-15.252,34-34C84,31.252,68.748,16,50,16z"></path><path fill="#000000" d="M50,80c16.569,0,30-13.431,30-30S66.569,20,50,20V80z"></path></g></svg>