<svg height='300px' width='300px'  fill="#000000" xmlns="http://www.w3.org/2000/svg" xmlns:xlink="http://www.w3.org/1999/xlink" version="1.1" x="0px" y="0px" viewBox="0 0 100 100" style="enable-background:new 0 0 100 100;" xml:space="preserve"><path d="M84.5,21.2c-3-3.6-6.5-6.6-10.4-9.1c0,0,0,0,0,0c0,0,0,0,0,0c-3.3-2.1-6.8-3.7-10.5-4.9c-3.4-1.1-6.9-1.7-10.5-2  C51.9,5,50.9,5,50,5C25.2,5,5,25.2,5,50c0,24.8,20.2,45,45,45c1,0,2,0,3.1-0.1c3.6-0.2,7.1-0.9,10.5-2c3.7-1.2,7.2-2.8,10.5-4.9  c0,0,0,0,0,0c0,0,0,0,0,0c3.9-2.5,7.4-5.6,10.4-9.1C91.3,70.8,95,60.5,95,50S91.3,29.2,84.5,21.2z M85,28.7c3.9,6.4,6,13.8,6,21.3  c0,7.6-2.1,14.9-6,21.3V28.7z M55,9.3c2,0.2,4,0.7,6,1.2v79c-2,0.5-4,0.9-6,1.2V9.3z M65,11.8c2.1,0.8,4.1,1.8,6,3v70.4  c-1.9,1.2-3.9,2.2-6,3V11.8z M9,50C9,27.4,27.4,9,50,9c0.3,0,0.7,0,1,0v82c-0.3,0-0.7,0-1,0C27.4,91,9,72.6,9,50z M75,82.5V17.5  c2.2,1.7,4.2,3.6,6,5.7v53.6C79.2,78.9,77.2,80.8,75,82.5z"></path></svg>