<svg height='300px' width='300px'  fill="#000000" xmlns="http://www.w3.org/2000/svg" xmlns:xlink="http://www.w3.org/1999/xlink" viewBox="0 0 24 24" version="1.1" x="0px" y="0px"><title>design_056-invert_selection-select-tool-graphic</title><desc>Created with Sketch.</desc><g stroke="none" stroke-width="1" fill="none" fill-rule="evenodd"><g transform="translate(-284.000000, -284.000000)" fill="#000000"><g transform="translate(285.000000, 285.000000)"><path d="M1.0027156,20.9986039 L20.9986039,20.9972844 L20.9972844,1.00139605 L1.00139605,1.0027156 L1.0027156,20.9986039 Z M0.998746091,0 L21.0012539,0 C21.5528461,0 22,0.438614845 22,0.998746091 L22,21.0012539 C22,21.5528461 21.5613852,22 21.0012539,22 L0.998746091,22 C0.447153856,22 0,21.5613852 0,21.0012539 L0,0.998746091 C0,0.447153856 0.438614845,0 0.998746091,0 Z"></path><polygon points="21.8535534 0.853553391 21.1464466 0.146446609 0.146446609 21.1464466 0.853553391 21.8535534"></polygon><path d="M11,18.5 C15.1421356,18.5 18.5,15.1421356 18.5,11 C18.5,6.85786438 15.1421356,3.5 11,3.5 C6.85786438,3.5 3.5,6.85786438 3.5,11 C3.5,15.1421356 6.85786438,18.5 11,18.5 Z M11,17.5 C14.5898509,17.5 17.5,14.5898509 17.5,11 C17.5,7.41014913 14.5898509,4.5 11,4.5 C7.41014913,4.5 4.5,7.41014913 4.5,11 C4.5,14.5898509 7.41014913,17.5 11,17.5 Z"></path><g transform="translate(2.000000, 2.000000)"><circle cx="0.5" cy="0.5" r="0.5"></circle><circle cx="2.5" cy="2.5" r="0.5"></circle><circle cx="4.5" cy="0.5" r="0.5"></circle><circle cx="8.5" cy="0.5" r="0.5"></circle><circle cx="12.5" cy="0.5" r="0.5"></circle><circle cx="0.5" cy="4.5" r="0.5"></circle><circle cx="0.5" cy="8.5" r="0.5"></circle><circle cx="0.5" cy="12.5" r="0.5"></circle><circle cx="13.5" cy="7.5" r="0.5"></circle><circle cx="11.5" cy="9.5" r="0.5"></circle><circle cx="13.5" cy="11.5" r="0.5"></circle><circle cx="9.5" cy="11.5" r="0.5"></circle><circle cx="7.5" cy="13.5" r="0.5"></circle><circle cx="11.5" cy="13.5" r="0.5"></circle></g></g></g></g></svg>