<svg height='300px' width='300px'  fill="#000000" xmlns="http://www.w3.org/2000/svg" xmlns:xlink="http://www.w3.org/1999/xlink" version="1.1" x="0px" y="0px" viewBox="0 0 100 100" enable-background="new 0 0 100 100" xml:space="preserve"><path fill="#000000" d="M73.159,26.696c-1.054-1.056-2.764-1.056-3.818-0.001L49.933,46.088L30.523,26.695  c-1.054-1.055-2.764-1.055-3.818,0.001c-1.054,1.055-1.054,2.765,0.002,3.818l19.405,19.39l-19.405,19.39  c-1.056,1.054-1.056,2.763-0.002,3.817c0.527,0.528,1.219,0.792,1.91,0.792s1.382-0.264,1.908-0.79l19.409-19.393l19.408,19.393  c0.527,0.526,1.218,0.79,1.908,0.79c0.692,0,1.383-0.264,1.91-0.792c1.054-1.055,1.054-2.764-0.002-3.817l-19.405-19.39  l19.405-19.39C74.213,29.461,74.213,27.751,73.159,26.696z"></path></svg>